Evolventa-BoldOblique.ufo
<glyph name="uni046E" format="1">
  <advance width="587"/>
  <unicode hex="046E"/>
  <outline>
    <contour>
      <point x="254" y="462" type="line"/>
      <point x="337" y="462" type="line" smooth="yes"/>
      <point x="383" y="462"/>
      <point x="442" y="494"/>
      <point x="452" y="546" type="curve" smooth="yes"/>
      <point x="453" y="549"/>
      <point x="453" y="552"/>
      <point x="453" y="555" type="curve" smooth="yes"/>
      <point x="453" y="591"/>
      <point x="416" y="620"/>
      <point x="364" y="620" type="curve" smooth="yes"/>
      <point x="207" y="620" type="line"/>
      <point x="231" y="752" type="line"/>
      <point x="330" y="752" type="line"/>
      <point x="236" y="878" type="line"/>
      <point x="365" y="878" type="line"/>
      <point x="399" y="814" type="line"/>
      <point x="459" y="878" type="line"/>
      <point x="590" y="878" type="line"/>
      <point x="443" y="749" type="line"/>
      <point x="530" y="734"/>
      <point x="589" y="669"/>
      <point x="589" y="589" type="curve" smooth="yes"/>
      <point x="589" y="579"/>
      <point x="588" y="568"/>
      <point x="586" y="558" type="curve" smooth="yes"/>
      <point x="569" y="466"/>
      <point x="517" y="418"/>
      <point x="483" y="406" type="curve"/>
      <point x="518" y="395"/>
      <point x="557" y="343"/>
      <point x="557" y="262" type="curve" smooth="yes"/>
      <point x="557" y="246"/>
      <point x="555" y="229"/>
      <point x="552" y="211" type="curve" smooth="yes"/>
      <point x="529" y="88"/>
      <point x="407" y="-13"/>
      <point x="281" y="-13" type="curve" smooth="yes"/>
      <point x="241" y="-13" type="line" smooth="yes"/>
      <point x="215" y="-13"/>
      <point x="198" y="-31"/>
      <point x="193" y="-59" type="curve" smooth="yes"/>
      <point x="192" y="-65"/>
      <point x="191" y="-71"/>
      <point x="191" y="-78" type="curve" smooth="yes"/>
      <point x="191" y="-105"/>
      <point x="203" y="-136"/>
      <point x="235" y="-169" type="curve"/>
      <point x="95" y="-169" type="line"/>
      <point x="73" y="-131"/>
      <point x="64" y="-93"/>
      <point x="64" y="-58" type="curve" smooth="yes"/>
      <point x="64" y="-44"/>
      <point x="66" y="-31"/>
      <point x="68" y="-18" type="curve" smooth="yes"/>
      <point x="82" y="58"/>
      <point x="139" y="119"/>
      <point x="194" y="119" type="curve" smooth="yes"/>
      <point x="274" y="119" type="line" smooth="yes"/>
      <point x="343" y="119"/>
      <point x="405" y="161"/>
      <point x="415" y="213" type="curve" smooth="yes"/>
      <point x="417" y="223"/>
      <point x="418" y="231"/>
      <point x="418" y="240" type="curve" smooth="yes"/>
      <point x="418" y="309"/>
      <point x="362" y="338"/>
      <point x="320" y="342" type="curve"/>
      <point x="232" y="342" type="line"/>
    </contour>
  </outline>
</glyph>
<glyph name="uni0478" format="1">
  <advance width="1417"/>
  <unicode hex="0478"/>
  <outline>
    <contour>
      <point x="533" y="620" type="curve" smooth="yes"/>
      <point x="532" y="620" type="line" smooth="yes"/>
      <point x="397" y="620"/>
      <point x="267" y="509"/>
      <point x="241" y="370" type="curve" smooth="yes"/>
      <point x="238" y="354"/>
      <point x="237" y="338"/>
      <point x="237" y="322" type="curve" smooth="yes"/>
      <point x="237" y="205"/>
      <point x="321" y="119"/>
      <point x="445" y="119" type="curve" smooth="yes"/>
      <point x="585" y="119"/>
      <point x="709" y="225"/>
      <point x="736" y="368" type="curve" smooth="yes"/>
      <point x="739" y="386"/>
      <point x="741" y="403"/>
      <point x="741" y="420" type="curve" smooth="yes"/>
      <point x="741" y="538"/>
      <point x="659" y="620"/>
    </contour>
    <contour>
      <point x="565" y="752" type="curve" smooth="yes"/>
      <point x="751" y="752"/>
      <point x="880" y="618"/>
      <point x="880" y="441" type="curve" smooth="yes"/>
      <point x="880" y="418"/>
      <point x="877" y="394"/>
      <point x="873" y="370" type="curve" smooth="yes"/>
      <point x="833" y="154"/>
      <point x="636" y="-13"/>
      <point x="421" y="-13" type="curve" smooth="yes"/>
      <point x="229" y="-13"/>
      <point x="96" y="119"/>
      <point x="96" y="298" type="curve" smooth="yes"/>
      <point x="96" y="321"/>
      <point x="98" y="345"/>
      <point x="103" y="369" type="curve" smooth="yes"/>
      <point x="143" y="585"/>
      <point x="344" y="752"/>
    </contour>
    <contour>
      <point x="880" y="-185" type="line"/>
      <point x="1028" y="52" type="line"/>
      <point x="918" y="554" type="line"/>
      <point x="1070" y="554" type="line"/>
      <point x="1126" y="195" type="line"/>
      <point x="1327" y="554" type="line"/>
      <point x="1480" y="554" type="line"/>
      <point x="1023" y="-185" type="line"/>
    </contour>
  </outline>
</glyph>
<glyph name="uni0479" format="1">
  <advance width="1175"/>
  <unicode hex="0479"/>
  <outline>
    <contour>
      <point x="402" y="445" type="curve" smooth="yes"/>
      <point x="401" y="445" type="line" smooth="yes"/>
      <point x="315" y="445"/>
      <point x="229" y="369"/>
      <point x="212" y="277" type="curve" smooth="yes"/>
      <point x="210" y="266"/>
      <point x="209" y="255"/>
      <point x="209" y="245" type="curve" smooth="yes"/>
      <point x="209" y="167"/>
      <point x="263" y="109"/>
      <point x="341" y="109" type="curve" smooth="yes"/>
      <point x="430" y="109"/>
      <point x="516" y="184"/>
      <point x="533" y="276" type="curve" smooth="yes"/>
      <point x="535" y="288"/>
      <point x="536" y="299"/>
      <point x="536" y="310" type="curve" smooth="yes"/>
      <point x="536" y="388"/>
      <point x="482" y="445"/>
    </contour>
    <contour>
      <point x="429" y="567" type="curve" smooth="yes"/>
      <point x="572" y="567"/>
      <point x="672" y="464"/>
      <point x="672" y="329" type="curve" smooth="yes"/>
      <point x="672" y="312"/>
      <point x="670" y="294"/>
      <point x="667" y="276" type="curve" smooth="yes"/>
      <point x="638" y="117"/>
      <point x="482" y="-13"/>
      <point x="320" y="-13" type="curve" smooth="yes"/>
      <point x="175" y="-13"/>
      <point x="73" y="90"/>
      <point x="73" y="225" type="curve" smooth="yes"/>
      <point x="73" y="242"/>
      <point x="75" y="259"/>
      <point x="78" y="276" type="curve" smooth="yes"/>
      <point x="108" y="438"/>
      <point x="263" y="567"/>
    </contour>
    <contour>
      <point x="648" y="-185" type="line"/>
      <point x="796" y="52" type="line"/>
      <point x="686" y="554" type="line"/>
      <point x="838" y="554" type="line"/>
      <point x="894" y="195" type="line"/>
      <point x="1095" y="554" type="line"/>
      <point x="1248" y="554" type="line"/>
      <point x="791" y="-185" type="line"/>
    </contour>
  </outline>
</glyph>
<glyph name="uni047A" format="1">
  <advance width="842"/>
  <unicode hex="047A"/>
  <outline>
    <contour>
      <point x="404" y="722" type="curve"/>
      <point x="406" y="721" type="line"/>
      <point x="435" y="786"/>
      <point x="502" y="833"/>
      <point x="575" y="833" type="curve" smooth="yes"/>
      <point x="641" y="833"/>
      <point x="687" y="790"/>
      <point x="695" y="729" type="curve"/>
      <point x="810" y="683"/>
      <point x="883" y="575"/>
      <point x="883" y="442" type="curve" smooth="yes"/>
      <point x="883" y="418"/>
      <point x="881" y="395"/>
      <point x="876" y="370" type="curve" smooth="yes"/>
      <point x="844" y="200"/>
      <point x="715" y="60"/>
      <point x="557" y="8" type="curve"/>
      <point x="525" y="-49"/>
      <point x="464" y="-88"/>
      <point x="400" y="-88" type="curve" smooth="yes"/>
      <point x="333" y="-88"/>
      <point x="286" y="-45"/>
      <point x="277" y="16" type="curve"/>
      <point x="167" y="64"/>
      <point x="98" y="169"/>
      <point x="98" y="298" type="curve" smooth="yes"/>
      <point x="98" y="321"/>
      <point x="100" y="345"/>
      <point x="105" y="369" type="curve" smooth="yes"/>
      <point x="135" y="530"/>
      <point x="254" y="664"/>
    </contour>
    <contour>
      <point x="406" y="586" type="curve"/>
      <point x="405" y="587" type="line"/>
      <point x="324" y="544"/>
      <point x="260" y="463"/>
      <point x="243" y="370" type="curve" smooth="yes"/>
      <point x="240" y="354"/>
      <point x="238" y="337"/>
      <point x="238" y="322" type="curve" smooth="yes"/>
      <point x="238" y="251"/>
      <point x="269" y="191"/>
      <point x="322" y="155" type="curve"/>
      <point x="357" y="194"/>
      <point x="407" y="219"/>
      <point x="460" y="219" type="curve" smooth="yes"/>
      <point x="513" y="219"/>
      <point x="553" y="191"/>
      <point x="571" y="148" type="curve"/>
      <point x="655" y="189"/>
      <point x="719" y="270"/>
      <point x="737" y="368" type="curve" smooth="yes"/>
      <point x="740" y="386"/>
      <point x="742" y="403"/>
      <point x="742" y="420" type="curve" smooth="yes"/>
      <point x="742" y="496"/>
      <point x="707" y="557"/>
      <point x="649" y="591" type="curve"/>
      <point x="615" y="552"/>
      <point x="566" y="527"/>
      <point x="514" y="527" type="curve" smooth="yes"/>
      <point x="465" y="527"/>
      <point x="426" y="550"/>
    </contour>
  </outline>
</glyph>
<glyph name="uni047B" format="1">
  <advance width="645"/>
  <unicode hex="047B"/>
  <outline>
    <contour>
      <point x="79" y="276" type="curve" smooth="yes"/>
      <point x="102" y="400"/>
      <point x="198" y="505"/>
      <point x="316" y="547" type="curve"/>
      <point x="343" y="586"/>
      <point x="389" y="612"/>
      <point x="438" y="612" type="curve" smooth="yes"/>
      <point x="484" y="612"/>
      <point x="518" y="586"/>
      <point x="530" y="547" type="curve"/>
      <point x="617" y="511"/>
      <point x="672" y="429"/>
      <point x="672" y="329" type="curve" smooth="yes"/>
      <point x="672" y="312"/>
      <point x="670" y="294"/>
      <point x="667" y="276" type="curve" smooth="yes"/>
      <point x="644" y="153"/>
      <point x="546" y="48"/>
      <point x="428" y="6" type="curve"/>
      <point x="401" y="-32"/>
      <point x="357" y="-57"/>
      <point x="311" y="-57" type="curve" smooth="yes"/>
      <point x="266" y="-57"/>
      <point x="232" y="-32"/>
      <point x="219" y="5" type="curve"/>
      <point x="130" y="41"/>
      <point x="74" y="124"/>
      <point x="74" y="224" type="curve" smooth="yes"/>
      <point x="74" y="241"/>
      <point x="76" y="258"/>
    </contour>
    <contour>
      <point x="303" y="413" type="curve"/>
      <point x="302" y="414" type="line"/>
      <point x="256" y="383"/>
      <point x="220" y="333"/>
      <point x="210" y="277" type="curve" smooth="yes"/>
      <point x="208" y="266"/>
      <point x="207" y="256"/>
      <point x="207" y="246" type="curve" smooth="yes"/>
      <point x="207" y="203"/>
      <point x="224" y="166"/>
      <point x="251" y="141" type="curve"/>
      <point x="279" y="170"/>
      <point x="318" y="188"/>
      <point x="359" y="188" type="curve" smooth="yes"/>
      <point x="397" y="188"/>
      <point x="427" y="170"/>
      <point x="443" y="142" type="curve"/>
      <point x="488" y="172"/>
      <point x="522" y="221"/>
      <point x="532" y="276" type="curve" smooth="yes"/>
      <point x="534" y="288"/>
      <point x="535" y="299"/>
      <point x="535" y="310" type="curve" smooth="yes"/>
      <point x="535" y="352"/>
      <point x="519" y="388"/>
      <point x="491" y="412" type="curve"/>
      <point x="464" y="384"/>
      <point x="427" y="367"/>
      <point x="389" y="367" type="curve" smooth="yes"/>
      <point x="350" y="367"/>
      <point x="320" y="385"/>
    </contour>
  </outline>
</glyph>
<glyph name="uni047C" format="1">
  <advance width="860"/>
  <unicode hex="047C"/>
  <outline>
    <contour>
      <point x="526" y="689" type="curve"/>
      <point x="521" y="689" type="line" smooth="yes"/>
      <point x="509" y="689"/>
      <point x="484" y="705"/>
      <point x="484" y="738" type="curve" smooth="yes"/>
      <point x="484" y="743"/>
      <point x="484" y="747"/>
      <point x="485" y="752" type="curve" smooth="yes"/>
      <point x="494" y="801"/>
      <point x="534" y="836"/>
      <point x="588" y="836" type="curve" smooth="yes"/>
      <point x="592" y="836" type="line" smooth="yes"/>
      <point x="641" y="836"/>
      <point x="670" y="813"/>
      <point x="670" y="774" type="curve" smooth="yes"/>
      <point x="670" y="768"/>
      <point x="669" y="763"/>
      <point x="668" y="757" type="curve" smooth="yes"/>
      <point x="666" y="744" type="line" smooth="yes"/>
      <point x="655" y="686"/>
      <point x="596" y="633"/>
      <point x="559" y="607" type="curve"/>
      <point x="445" y="607" type="line"/>
      <point x="482" y="631"/>
      <point x="521" y="662"/>
    </contour>
    <contour>
      <point x="384" y="607" type="line" smooth="yes"/>
      <point x="340" y="607"/>
      <point x="300" y="557"/>
      <point x="289" y="497" type="curve" smooth="yes"/>
      <point x="239" y="227" type="line" smooth="yes"/>
      <point x="237" y="214"/>
      <point x="235" y="203"/>
      <point x="235" y="193" type="curve" smooth="yes"/>
      <point x="235" y="140"/>
      <point x="267" y="119"/>
      <point x="309" y="119" type="curve" smooth="yes"/>
      <point x="350" y="119"/>
      <point x="389" y="159"/>
      <point x="395" y="191" type="curve" smooth="yes"/>
      <point x="411" y="277" type="line"/>
      <point x="548" y="277" type="line"/>
      <point x="532" y="191" type="line" smooth="yes"/>
      <point x="532" y="189"/>
      <point x="531" y="187"/>
      <point x="531" y="185" type="curve" smooth="yes"/>
      <point x="531" y="152"/>
      <point x="573" y="119"/>
      <point x="596" y="119" type="curve" smooth="yes"/>
      <point x="659" y="119"/>
      <point x="690" y="148"/>
      <point x="705" y="227" type="curve" smooth="yes"/>
      <point x="755" y="497" type="line" smooth="yes"/>
      <point x="758" y="511"/>
      <point x="759" y="524"/>
      <point x="759" y="535" type="curve" smooth="yes"/>
      <point x="759" y="586"/>
      <point x="733" y="607"/>
      <point x="702" y="607" type="curve" smooth="yes"/>
      <point x="672" y="607" type="line"/>
      <point x="696" y="739" type="line"/>
      <point x="796" y="739" type="line" smooth="yes"/>
      <point x="870" y="739"/>
      <point x="903" y="692"/>
      <point x="903" y="603" type="curve" smooth="yes"/>
      <point x="903" y="573"/>
      <point x="899" y="537"/>
      <point x="892" y="497" type="curve" smooth="yes"/>
      <point x="842" y="227" type="line" smooth="yes"/>
      <point x="811" y="60"/>
      <point x="725" y="-13"/>
      <point x="582" y="-13" type="curve" smooth="yes"/>
      <point x="489" y="-13"/>
      <point x="457" y="52"/>
      <point x="444" y="80" type="curve"/>
      <point x="420" y="52"/>
      <point x="358" y="-13"/>
      <point x="265" y="-13" type="curve" smooth="yes"/>
      <point x="160" y="-13"/>
      <point x="94" y="42"/>
      <point x="94" y="157" type="curve" smooth="yes"/>
      <point x="94" y="178"/>
      <point x="96" y="202"/>
      <point x="101" y="227" type="curve" smooth="yes"/>
      <point x="151" y="497" type="line" smooth="yes"/>
      <point x="180" y="651"/>
      <point x="254" y="739"/>
      <point x="337" y="739" type="curve" smooth="yes"/>
      <point x="437" y="739" type="line"/>
      <point x="413" y="607" type="line"/>
    </contour>
    <contour>
      <point x="871" y="934" type="line"/>
      <point x="848" y="800" type="line"/>
      <point x="809" y="800" type="line" smooth="yes"/>
      <point x="698" y="800"/>
      <point x="645" y="902"/>
      <point x="565" y="902" type="curve" smooth="yes"/>
      <point x="484" y="902"/>
      <point x="461" y="853"/>
      <point x="455" y="820" type="curve" smooth="yes"/>
      <point x="451" y="800" type="line"/>
      <point x="314" y="800" type="line"/>
      <point x="318" y="824" type="line" smooth="yes"/>
      <point x="345" y="972"/>
      <point x="478" y="1035"/>
      <point x="576" y="1035" type="curve" smooth="yes"/>
      <point x="701" y="1035"/>
      <point x="753" y="934"/>
      <point x="833" y="934" type="curve" smooth="yes"/>
    </contour>
  </outline>
</glyph>
<glyph name="uni047D" format="1">
  <advance width="860"/>
  <unicode hex="047D"/>
  <outline>
    <contour>
      <point x="358" y="415" type="line"/>
      <point x="346" y="415" type="line" smooth="yes"/>
      <point x="302" y="415"/>
      <point x="264" y="378"/>
      <point x="256" y="335" type="curve" smooth="yes"/>
      <point x="236" y="227" type="line" smooth="yes"/>
      <point x="234" y="214"/>
      <point x="233" y="203"/>
      <point x="233" y="192" type="curve" smooth="yes"/>
      <point x="233" y="132"/>
      <point x="270" y="109"/>
      <point x="319" y="109" type="curve" smooth="yes"/>
      <point x="356" y="109"/>
      <point x="389" y="135"/>
      <point x="399" y="191" type="curve" smooth="yes"/>
      <point x="415" y="277" type="line"/>
      <point x="548" y="277" type="line"/>
      <point x="532" y="191" type="line" smooth="yes"/>
      <point x="531" y="184"/>
      <point x="530" y="178"/>
      <point x="530" y="172" type="curve" smooth="yes"/>
      <point x="530" y="127"/>
      <point x="565" y="109"/>
      <point x="585" y="109" type="curve" smooth="yes"/>
      <point x="658" y="109"/>
      <point x="693" y="140"/>
      <point x="709" y="227" type="curve" smooth="yes"/>
      <point x="729" y="335" type="line" smooth="yes"/>
      <point x="730" y="343"/>
      <point x="731" y="350"/>
      <point x="731" y="356" type="curve" smooth="yes"/>
      <point x="731" y="398"/>
      <point x="703" y="415"/>
      <point x="669" y="415" type="curve" smooth="yes"/>
      <point x="656" y="415" type="line"/>
      <point x="680" y="547" type="line"/>
      <point x="760" y="547" type="line" smooth="yes"/>
      <point x="836" y="547"/>
      <point x="870" y="502"/>
      <point x="870" y="417" type="curve" smooth="yes"/>
      <point x="870" y="390"/>
      <point x="866" y="360"/>
      <point x="860" y="325" type="curve" smooth="yes"/>
      <point x="842" y="227" type="line" smooth="yes"/>
      <point x="811" y="60"/>
      <point x="725" y="-13"/>
      <point x="582" y="-13" type="curve" smooth="yes"/>
      <point x="509" y="-13"/>
      <point x="456" y="45"/>
      <point x="443" y="70" type="curve"/>
      <point x="420" y="45"/>
      <point x="342" y="-13"/>
      <point x="266" y="-13" type="curve" smooth="yes"/>
      <point x="161" y="-13"/>
      <point x="95" y="42"/>
      <point x="95" y="157" type="curve" smooth="yes"/>
      <point x="95" y="178"/>
      <point x="97" y="202"/>
      <point x="102" y="227" type="curve" smooth="yes"/>
      <point x="120" y="325" type="line" smooth="yes"/>
      <point x="146" y="466"/>
      <point x="219" y="547"/>
      <point x="302" y="547" type="curve" smooth="yes"/>
      <point x="382" y="547" type="line"/>
    </contour>
    <contour>
      <point x="833" y="725" type="line"/>
      <point x="810" y="591" type="line"/>
      <point x="771" y="591" type="line" smooth="yes"/>
      <point x="660" y="591"/>
      <point x="607" y="693"/>
      <point x="527" y="693" type="curve" smooth="yes"/>
      <point x="446" y="693"/>
      <point x="423" y="644"/>
      <point x="417" y="611" type="curve" smooth="yes"/>
      <point x="413" y="591" type="line"/>
      <point x="276" y="591" type="line"/>
      <point x="280" y="615" type="line"/>
      <point x="307" y="763"/>
      <point x="440" y="826"/>
      <point x="538" y="826" type="curve" smooth="yes"/>
      <point x="663" y="826"/>
      <point x="715" y="725"/>
      <point x="795" y="725" type="curve" smooth="yes"/>
    </contour>
    <contour>
      <point x="487" y="469" type="curve"/>
      <point x="482" y="469" type="line" smooth="yes"/>
      <point x="470" y="469"/>
      <point x="445" y="485"/>
      <point x="445" y="518" type="curve" smooth="yes"/>
      <point x="445" y="523"/>
      <point x="445" y="527"/>
      <point x="446" y="532" type="curve" smooth="yes"/>
      <point x="455" y="581"/>
      <point x="495" y="616"/>
      <point x="549" y="616" type="curve" smooth="yes"/>
      <point x="553" y="616" type="line" smooth="yes"/>
      <point x="602" y="616"/>
      <point x="631" y="593"/>
      <point x="631" y="554" type="curve" smooth="yes"/>
      <point x="631" y="548"/>
      <point x="630" y="543"/>
      <point x="629" y="537" type="curve" smooth="yes"/>
      <point x="627" y="524" type="line"/>
      <point x="616" y="466"/>
      <point x="557" y="413"/>
      <point x="520" y="387" type="curve"/>
      <point x="406" y="387" type="line"/>
      <point x="443" y="411"/>
      <point x="482" y="442"/>
    </contour>
  </outline>
</glyph>
<glyph name="uni0485" format="1">
  <advance width="0"/>
  <unicode hex="0485"/>
  <outline>
    <contour>
      <point x="-5" y="689" type="line"/>
      <point x="-6" y="689" type="line"/>
      <point x="-6" y="687"/>
      <point x="-7" y="685"/>
      <point x="-7" y="682" type="curve" smooth="yes"/>
      <point x="-7" y="657"/>
      <point x="18" y="629"/>
      <point x="45" y="607" type="curve"/>
      <point x="-69" y="607" type="line"/>
      <point x="-93" y="630"/>
      <point x="-126" y="674"/>
      <point x="-126" y="724" type="curve" smooth="yes"/>
      <point x="-126" y="730"/>
      <point x="-125" y="737"/>
      <point x="-124" y="744" type="curve" smooth="yes"/>
      <point x="-122" y="757" type="line" smooth="yes"/>
      <point x="-113" y="807"/>
      <point x="-72" y="836"/>
      <point x="-17" y="836" type="curve" smooth="yes"/>
      <point x="-13" y="836" type="line" smooth="yes"/>
      <point x="34" y="836"/>
      <point x="61" y="809"/>
      <point x="61" y="770" type="curve" smooth="yes"/>
      <point x="61" y="764"/>
      <point x="60" y="758"/>
      <point x="59" y="752" type="curve" smooth="yes"/>
      <point x="51" y="710"/>
      <point x="13" y="689"/>
      <point x="-1" y="689" type="curve" smooth="yes"/>
    </contour>
  </outline>
</glyph>
<glyph name="uni0486" format="1">
  <advance width="0"/>
  <unicode hex="0486"/>
  <outline>
    <contour>
      <point x="-68" y="689" type="curve"/>
      <point x="-73" y="689" type="line" smooth="yes"/>
      <point x="-85" y="689"/>
      <point x="-110" y="705"/>
      <point x="-110" y="738" type="curve" smooth="yes"/>
      <point x="-110" y="743"/>
      <point x="-110" y="747"/>
      <point x="-109" y="752" type="curve" smooth="yes"/>
      <point x="-100" y="801"/>
      <point x="-60" y="836"/>
      <point x="-6" y="836" type="curve" smooth="yes"/>
      <point x="-2" y="836" type="line" smooth="yes"/>
      <point x="47" y="836"/>
      <point x="76" y="813"/>
      <point x="76" y="774" type="curve" smooth="yes"/>
      <point x="76" y="768"/>
      <point x="75" y="763"/>
      <point x="74" y="757" type="curve" smooth="yes"/>
      <point x="72" y="744" type="line" smooth="yes"/>
      <point x="61" y="686"/>
      <point x="2" y="633"/>
      <point x="-35" y="607" type="curve"/>
      <point x="-149" y="607" type="line"/>
      <point x="-112" y="631"/>
      <point x="-73" y="662"/>
    </contour>
  </outline>
</glyph>
<glyph name="uni042F.loclBGR" format="1">
  <advance width="607"/>
  <outline>
    <contour>
      <point x="667" y="740" type="line"/>
      <point x="531" y="0" type="line"/>
      <point x="394" y="0" type="line"/>
      <point x="507" y="608" type="line"/>
      <point x="427" y="608" type="line" smooth="yes"/>
      <point x="326" y="608"/>
      <point x="290" y="554"/>
      <point x="281" y="505" type="curve" smooth="yes"/>
      <point x="279" y="496"/>
      <point x="278" y="488"/>
      <point x="278" y="480" type="curve" smooth="yes"/>
      <point x="278" y="424"/>
      <point x="321" y="398"/>
      <point x="387" y="398" type="curve" smooth="yes"/>
      <point x="444" y="398" type="line"/>
      <point x="420" y="268" type="line"/>
      <point x="383" y="268" type="line"/>
      <point x="169" y="0" type="line"/>
      <point x="12" y="0" type="line"/>
      <point x="234" y="275" type="line"/>
      <point x="161" y="309"/>
      <point x="129" y="367"/>
      <point x="129" y="441" type="curve" smooth="yes"/>
      <point x="129" y="459"/>
      <point x="131" y="478"/>
      <point x="135" y="498" type="curve" smooth="yes"/>
      <point x="179" y="738"/>
      <point x="414" y="740"/>
      <point x="460" y="740" type="curve" smooth="yes"/>
    </contour>
  </outline>
</glyph>
<glyph name="uni0431.loclBGR" format="1">
  <advance width="648"/>
  <outline>
    <contour>
      <point x="400" y="408" type="curve" smooth="yes"/>
      <point x="301" y="408"/>
      <point x="212" y="346"/>
      <point x="212" y="235" type="curve" smooth="yes"/>
      <point x="212" y="162"/>
      <point x="263" y="109"/>
      <point x="344" y="109" type="curve" smooth="yes"/>
      <point x="433" y="109"/>
      <point x="512" y="172"/>
      <point x="528" y="256" type="curve" smooth="yes"/>
      <point x="530" y="266"/>
      <point x="531" y="276"/>
      <point x="531" y="285" type="curve" smooth="yes"/>
      <point x="531" y="356"/>
      <point x="479" y="408"/>
    </contour>
    <contour>
      <point x="643" y="628" type="line"/>
      <point x="444" y="607" type="line"/>
      <point x="295" y="589"/>
      <point x="262" y="504"/>
      <point x="257" y="478" type="curve"/>
      <point x="260" y="477" type="line"/>
      <point x="294" y="503"/>
      <point x="355" y="530"/>
      <point x="433" y="530" type="curve" smooth="yes"/>
      <point x="573" y="530"/>
      <point x="668" y="436"/>
      <point x="668" y="308" type="curve" smooth="yes"/>
      <point x="668" y="291"/>
      <point x="666" y="274"/>
      <point x="663" y="256" type="curve" smooth="yes"/>
      <point x="634" y="102"/>
      <point x="487" y="-13"/>
      <point x="321" y="-13" type="curve" smooth="yes"/>
      <point x="148" y="-13"/>
      <point x="78" y="91"/>
      <point x="78" y="223" type="curve" smooth="yes"/>
      <point x="78" y="249"/>
      <point x="81" y="276"/>
      <point x="86" y="304" type="curve" smooth="yes"/>
      <point x="143" y="609"/>
      <point x="259" y="694"/>
      <point x="468" y="727" type="curve"/>
      <point x="666" y="752" type="line"/>
    </contour>
  </outline>
</glyph>
<glyph name="uni0432.loclBGR" format="1">
  <advance width="655"/>
  <outline>
    <contour>
      <point x="584" y="402" type="curve"/>
      <point x="585" y="401" type="line"/>
      <point x="619" y="380"/>
      <point x="650" y="334"/>
      <point x="650" y="262" type="curve" smooth="yes"/>
      <point x="650" y="246"/>
      <point x="648" y="228"/>
      <point x="645" y="209" type="curve" smooth="yes"/>
      <point x="622" y="87"/>
      <point x="475" y="-14"/>
      <point x="341" y="-14" type="curve" smooth="yes"/>
      <point x="241" y="-14"/>
      <point x="99" y="7"/>
      <point x="99" y="174" type="curve" smooth="yes"/>
      <point x="99" y="195"/>
      <point x="101" y="218"/>
      <point x="106" y="244" type="curve" smooth="yes"/>
      <point x="151" y="487" type="line" smooth="yes"/>
      <point x="190" y="696"/>
      <point x="357" y="751"/>
      <point x="461" y="751" type="curve" smooth="yes"/>
      <point x="588" y="751"/>
      <point x="690" y="693"/>
      <point x="690" y="575" type="curve" smooth="yes"/>
      <point x="690" y="562"/>
      <point x="689" y="548"/>
      <point x="686" y="533" type="curve" smooth="yes"/>
      <point x="675" y="473"/>
      <point x="628" y="421"/>
    </contour>
    <contour>
      <point x="285" y="489" type="curve" smooth="yes"/>
      <point x="236" y="231" type="line" smooth="yes"/>
      <point x="234" y="221"/>
      <point x="233" y="211"/>
      <point x="233" y="202" type="curve" smooth="yes"/>
      <point x="233" y="143"/>
      <point x="274" y="108"/>
      <point x="356" y="108" type="curve" smooth="yes"/>
      <point x="437" y="108"/>
      <point x="501" y="156"/>
      <point x="514" y="228" type="curve" smooth="yes"/>
      <point x="516" y="238"/>
      <point x="517" y="248"/>
      <point x="517" y="258" type="curve" smooth="yes"/>
      <point x="517" y="306"/>
      <point x="490" y="336"/>
      <point x="427" y="336" type="curve" smooth="yes"/>
      <point x="311" y="336" type="line"/>
      <point x="329" y="434" type="line"/>
      <point x="448" y="434" type="line" smooth="yes"/>
      <point x="511" y="434"/>
      <point x="549" y="473"/>
      <point x="560" y="532" type="curve" smooth="yes"/>
      <point x="561" y="539"/>
      <point x="562" y="545"/>
      <point x="562" y="551" type="curve" smooth="yes"/>
      <point x="562" y="599"/>
      <point x="524" y="629"/>
      <point x="447" y="629" type="curve" smooth="yes"/>
      <point x="355" y="629"/>
      <point x="302" y="579"/>
    </contour>
  </outline>
</glyph>
<glyph name="uni0433.loclMKD" format="1">
  <advance width="438"/>
  <outline>
    <contour>
      <point x="133" y="648" type="line"/>
      <point x="152" y="748" type="line"/>
      <point x="529" y="748" type="line"/>
      <point x="510" y="648" type="line"/>
    </contour>
    <contour>
      <point x="449" y="176" type="line"/>
      <point x="427" y="59"/>
      <point x="328" y="-13"/>
      <point x="211" y="-13" type="curve" smooth="yes"/>
      <point x="112" y="-13"/>
      <point x="45" y="52"/>
      <point x="45" y="141" type="curve" smooth="yes"/>
      <point x="45" y="152"/>
      <point x="46" y="164"/>
      <point x="48" y="176" type="curve" smooth="yes"/>
      <point x="64" y="260"/>
      <point x="114" y="304"/>
      <point x="232" y="338" type="curve" smooth="yes"/>
      <point x="294" y="356"/>
      <point x="332" y="367"/>
      <point x="339" y="403" type="curve" smooth="yes"/>
      <point x="339" y="405"/>
      <point x="340" y="407"/>
      <point x="340" y="409" type="curve" smooth="yes"/>
      <point x="340" y="430"/>
      <point x="321" y="445"/>
      <point x="295" y="445" type="curve" smooth="yes"/>
      <point x="267" y="445"/>
      <point x="241" y="433"/>
      <point x="235" y="401" type="curve"/>
      <point x="105" y="401" type="line"/>
      <point x="124" y="503"/>
      <point x="221" y="567"/>
      <point x="318" y="567" type="curve" smooth="yes"/>
      <point x="411" y="567"/>
      <point x="473" y="508"/>
      <point x="473" y="429" type="curve" smooth="yes"/>
      <point x="473" y="419"/>
      <point x="472" y="408"/>
      <point x="470" y="398" type="curve" smooth="yes"/>
      <point x="455" y="317"/>
      <point x="403" y="271"/>
      <point x="285" y="234" type="curve" smooth="yes"/>
      <point x="224" y="215"/>
      <point x="185" y="202"/>
      <point x="178" y="163" type="curve" smooth="yes"/>
      <point x="177" y="159"/>
      <point x="177" y="156"/>
      <point x="177" y="153" type="curve" smooth="yes"/>
      <point x="177" y="127"/>
      <point x="197" y="109"/>
      <point x="228" y="109" type="curve" smooth="yes"/>
      <point x="267" y="109"/>
      <point x="306" y="130"/>
      <point x="315" y="176" type="curve"/>
    </contour>
  </outline>
</glyph>
<glyph name="uni0434.loclBGR" format="1">
  <advance width="663"/>
  <outline>
    <contour>
      <point x="396" y="445" type="curve" smooth="yes"/>
      <point x="305" y="445"/>
      <point x="231" y="377"/>
      <point x="212" y="275" type="curve" smooth="yes"/>
      <point x="209" y="261"/>
      <point x="208" y="247"/>
      <point x="208" y="234" type="curve" smooth="yes"/>
      <point x="208" y="157"/>
      <point x="256" y="109"/>
      <point x="337" y="109" type="curve" smooth="yes"/>
      <point x="433" y="109"/>
      <point x="507" y="175"/>
      <point x="526" y="277" type="curve" smooth="yes"/>
      <point x="529" y="291"/>
      <point x="530" y="304"/>
      <point x="530" y="316" type="curve" smooth="yes"/>
      <point x="530" y="394"/>
      <point x="480" y="445"/>
    </contour>
    <contour>
      <point x="584" y="554" type="line"/>
      <point x="710" y="554" type="line"/>
      <point x="627" y="105" type="line" smooth="yes"/>
      <point x="607" y="-5"/>
      <point x="576" y="-73"/>
      <point x="523" y="-125" type="curve" smooth="yes"/>
      <point x="459" y="-188"/>
      <point x="376" y="-221"/>
      <point x="279" y="-221" type="curve" smooth="yes"/>
      <point x="143" y="-221"/>
      <point x="51" y="-156"/>
      <point x="27" y="-45" type="curve"/>
      <point x="178" y="-45" type="line"/>
      <point x="209" y="-88"/>
      <point x="244" y="-104"/>
      <point x="306" y="-104" type="curve" smooth="yes"/>
      <point x="405" y="-104"/>
      <point x="467" y="-46"/>
      <point x="494" y="73" type="curve"/>
      <point x="431" y="12"/>
      <point x="374" y="-13"/>
      <point x="296" y="-13" type="curve" smooth="yes"/>
      <point x="159" y="-13"/>
      <point x="73" y="79"/>
      <point x="73" y="215" type="curve" smooth="yes"/>
      <point x="73" y="236"/>
      <point x="75" y="258"/>
      <point x="79" y="281" type="curve" smooth="yes"/>
      <point x="109" y="445"/>
      <point x="248" y="567"/>
      <point x="405" y="567" type="curve" smooth="yes"/>
      <point x="485" y="567"/>
      <point x="539" y="540"/>
      <point x="571" y="484" type="curve"/>
    </contour>
  </outline>
</glyph>
<glyph name="uni0437.loclBGR" format="1">
  <advance width="570"/>
  <outline>
    <contour>
      <point x="29" y="-17" type="curve"/>
      <point x="168" y="-17" type="line"/>
      <point x="179" y="-49"/>
      <point x="205" y="-75"/>
      <point x="269" y="-75" type="curve" smooth="yes"/>
      <point x="336" y="-75"/>
      <point x="393" y="-22"/>
      <point x="405" y="42" type="curve" smooth="yes"/>
      <point x="406" y="51"/>
      <point x="407" y="60"/>
      <point x="407" y="68" type="curve" smooth="yes"/>
      <point x="407" y="128"/>
      <point x="365" y="163"/>
      <point x="303" y="163" type="curve" smooth="yes"/>
      <point x="225" y="163" type="line"/>
      <point x="243" y="261" type="line"/>
      <point x="339" y="261" type="line" smooth="yes"/>
      <point x="380" y="261"/>
      <point x="428" y="286"/>
      <point x="441" y="357" type="curve" smooth="yes"/>
      <point x="442" y="364"/>
      <point x="443" y="370"/>
      <point x="443" y="376" type="curve" smooth="yes"/>
      <point x="443" y="422"/>
      <point x="408" y="447"/>
      <point x="355" y="447" type="curve" smooth="yes"/>
      <point x="307" y="447"/>
      <point x="266" y="417"/>
      <point x="242" y="362" type="curve"/>
      <point x="112" y="362" type="line"/>
      <point x="163" y="514"/>
      <point x="284" y="568"/>
      <point x="378" y="568" type="curve" smooth="yes"/>
      <point x="507" y="568"/>
      <point x="572" y="494"/>
      <point x="572" y="404" type="curve" smooth="yes"/>
      <point x="572" y="392"/>
      <point x="571" y="379"/>
      <point x="569" y="367" type="curve" smooth="yes"/>
      <point x="555" y="292"/>
      <point x="515" y="243"/>
      <point x="466" y="215" type="curve"/>
      <point x="510" y="187"/>
      <point x="541" y="135"/>
      <point x="541" y="73" type="curve" smooth="yes"/>
      <point x="541" y="62"/>
      <point x="540" y="50"/>
      <point x="538" y="38" type="curve" smooth="yes"/>
      <point x="512" y="-103"/>
      <point x="386" y="-197"/>
      <point x="245" y="-197" type="curve" smooth="yes"/>
      <point x="119" y="-197"/>
      <point x="36" y="-116"/>
    </contour>
  </outline>
</glyph>
<glyph name="uni0439.loclBGR" format="1">
  <advance width="599"/>
  <outline>
    <contour>
      <point x="648" y="554" type="line"/>
      <point x="545" y="0" type="line"/>
      <point x="422" y="0" type="line"/>
      <point x="432" y="53" type="line"/>
      <point x="372" y="4"/>
      <point x="328" y="-13"/>
      <point x="261" y="-13" type="curve" smooth="yes"/>
      <point x="186" y="-13"/>
      <point x="131" y="18"/>
      <point x="105" y="74" type="curve" smooth="yes"/>
      <point x="94" y="98"/>
      <point x="88" y="123"/>
      <point x="88" y="155" type="curve" smooth="yes"/>
      <point x="88" y="183"/>
      <point x="92" y="215"/>
      <point x="100" y="257" type="curve" smooth="yes"/>
      <point x="155" y="554" type="line"/>
      <point x="288" y="554" type="line"/>
      <point x="238" y="283" type="line" smooth="yes"/>
      <point x="231" y="246"/>
      <point x="228" y="219"/>
      <point x="228" y="197" type="curve" smooth="yes"/>
      <point x="228" y="172"/>
      <point x="232" y="155"/>
      <point x="240" y="142" type="curve" smooth="yes"/>
      <point x="255" y="120"/>
      <point x="277" y="109"/>
      <point x="311" y="109" type="curve" smooth="yes"/>
      <point x="357" y="109"/>
      <point x="399" y="128"/>
      <point x="424" y="162" type="curve" smooth="yes"/>
      <point x="443" y="187"/>
      <point x="454" y="222"/>
      <point x="467" y="293" type="curve" smooth="yes"/>
      <point x="515" y="554" type="line"/>
    </contour>
    <contour>
      <point x="281" y="746" type="curve"/>
      <point x="382" y="746" type="line"/>
      <point x="380" y="737"/>
      <point x="380" y="729"/>
      <point x="380" y="721" type="curve" smooth="yes"/>
      <point x="380" y="689"/>
      <point x="396" y="675"/>
      <point x="433" y="675" type="curve" smooth="yes"/>
      <point x="478" y="675"/>
      <point x="501" y="696"/>
      <point x="510" y="746" type="curve"/>
      <point x="611" y="746" type="line"/>
      <point x="579" y="656"/>
      <point x="513" y="616"/>
      <point x="422" y="616" type="curve" smooth="yes"/>
      <point x="333" y="616"/>
      <point x="281" y="655"/>
      <point x="281" y="741" type="curve" smooth="yes"/>
      <point x="281" y="743"/>
      <point x="281" y="744"/>
    </contour>
  </outline>
</glyph>
<glyph name="uni0449.loclBGR" format="1">
  <advance width="994"/>
  <outline>
    <contour>
      <point x="773" y="52" type="curve"/>
      <point x="725" y="5"/>
      <point x="682" y="-13"/>
      <point x="617" y="-13" type="curve" smooth="yes"/>
      <point x="540" y="-13"/>
      <point x="496" y="12"/>
      <point x="470" y="73" type="curve"/>
      <point x="413" y="13"/>
      <point x="355" y="-13"/>
      <point x="277" y="-13" type="curve" smooth="yes"/>
      <point x="153" y="-13"/>
      <point x="89" y="47"/>
      <point x="89" y="159" type="curve" smooth="yes"/>
      <point x="89" y="180"/>
      <point x="91" y="202"/>
      <point x="96" y="227" type="curve" smooth="yes"/>
      <point x="157" y="554" type="line"/>
      <point x="290" y="554" type="line"/>
      <point x="232" y="241" type="line" smooth="yes"/>
      <point x="229" y="225"/>
      <point x="227" y="210"/>
      <point x="227" y="197" type="curve" smooth="yes"/>
      <point x="227" y="140"/>
      <point x="255" y="109"/>
      <point x="311" y="109" type="curve" smooth="yes"/>
      <point x="394" y="109"/>
      <point x="434" y="169"/>
      <point x="452" y="265" type="curve" smooth="yes"/>
      <point x="506" y="554" type="line"/>
      <point x="639" y="554" type="line"/>
      <point x="580" y="237" type="line" smooth="yes"/>
      <point x="577" y="221"/>
      <point x="575" y="206"/>
      <point x="575" y="193" type="curve" smooth="yes"/>
      <point x="575" y="138"/>
      <point x="603" y="109"/>
      <point x="663" y="109" type="curve" smooth="yes"/>
      <point x="745" y="109"/>
      <point x="783" y="166"/>
      <point x="800" y="257" type="curve" smooth="yes"/>
      <point x="855" y="554" type="line"/>
      <point x="988" y="554" type="line"/>
      <point x="924" y="211" type="line" smooth="yes"/>
      <point x="922" y="202"/>
      <point x="922" y="193"/>
      <point x="922" y="185" type="curve" smooth="yes"/>
      <point x="922" y="129"/>
      <point x="958" y="96"/>
      <point x="989" y="81" type="curve"/>
      <point x="916" y="-126" type="line"/>
      <point x="808" y="-126" type="line"/>
      <point x="841" y="0" type="line"/>
      <point x="810" y="0"/>
      <point x="785" y="21"/>
    </contour>
  </outline>
</glyph>
<glyph name="uni044A.loclBGR" format="1">
  <advance width="734"/>
  <outline>
    <contour>
      <point x="739" y="282" type="curve" smooth="yes"/>
      <point x="739" y="96"/>
      <point x="580" y="-13"/>
      <point x="405" y="-13" type="curve" smooth="yes"/>
      <point x="263" y="-13"/>
      <point x="163" y="60"/>
      <point x="163" y="184" type="curve" smooth="yes"/>
      <point x="163" y="199"/>
      <point x="166" y="223"/>
      <point x="168" y="232" type="curve" smooth="yes"/>
      <point x="205" y="433" type="line"/>
      <point x="91" y="433" type="line"/>
      <point x="113" y="554" type="line"/>
      <point x="360" y="554" type="line"/>
      <point x="338" y="434" type="line"/>
      <point x="384" y="472"/>
      <point x="455" y="485"/>
      <point x="527" y="485" type="curve" smooth="yes"/>
      <point x="660" y="485"/>
      <point x="739" y="406"/>
    </contour>
    <contour>
      <point x="299" y="216" type="curve" smooth="yes"/>
      <point x="299" y="146"/>
      <point x="356" y="109"/>
      <point x="432" y="109" type="curve" smooth="yes"/>
      <point x="516" y="109"/>
      <point x="602" y="155"/>
      <point x="602" y="258" type="curve" smooth="yes"/>
      <point x="602" y="319"/>
      <point x="557" y="363"/>
      <point x="480" y="363" type="curve" smooth="yes"/>
      <point x="383" y="363"/>
      <point x="299" y="308"/>
    </contour>
  </outline>
</glyph>
<glyph name="uni044B.loclBGR" format="1">
  <advance width="900"/>
  <outline>
    <contour>
      <point x="704" y="0" type="line"/>
      <point x="807" y="554" type="line"/>
      <point x="940" y="554" type="line"/>
      <point x="837" y="0" type="line"/>
    </contour>
    <contour>
      <point x="369" y="109" type="curve" smooth="yes"/>
      <point x="453" y="109"/>
      <point x="539" y="155"/>
      <point x="539" y="258" type="curve" smooth="yes"/>
      <point x="539" y="319"/>
      <point x="494" y="363"/>
      <point x="417" y="363" type="curve" smooth="yes"/>
      <point x="320" y="363"/>
      <point x="236" y="300"/>
      <point x="236" y="209" type="curve" smooth="yes"/>
      <point x="236" y="144"/>
      <point x="293" y="109"/>
    </contour>
    <contour>
      <point x="463" y="485" type="curve" smooth="yes"/>
      <point x="599" y="485"/>
      <point x="675" y="396"/>
      <point x="675" y="282" type="curve" smooth="yes"/>
      <point x="675" y="266"/>
      <point x="673" y="249"/>
      <point x="670" y="232" type="curve" smooth="yes"/>
      <point x="642" y="81"/>
      <point x="506" y="-13"/>
      <point x="341" y="-13" type="curve" smooth="yes"/>
      <point x="195" y="-13"/>
      <point x="99" y="61"/>
      <point x="99" y="183" type="curve" smooth="yes"/>
      <point x="99" y="199"/>
      <point x="101" y="215"/>
      <point x="104" y="232" type="curve" smooth="yes"/>
      <point x="164" y="554" type="line"/>
      <point x="297" y="554" type="line"/>
      <point x="274" y="428" type="line"/>
      <point x="312" y="459"/>
      <point x="392" y="485"/>
    </contour>
  </outline>
</glyph>
<glyph name="uni044F.loclBGR" format="1">
  <advance width="505"/>
  <outline>
    <contour>
      <point x="560" y="554" type="line"/>
      <point x="456" y="0" type="line"/>
      <point x="323" y="0" type="line"/>
      <point x="403" y="433" type="line"/>
      <point x="312" y="433" type="line" smooth="yes"/>
      <point x="304" y="433"/>
      <point x="248" y="426"/>
      <point x="239" y="376" type="curve" smooth="yes"/>
      <point x="238" y="372"/>
      <point x="238" y="367"/>
      <point x="238" y="363" type="curve" smooth="yes"/>
      <point x="238" y="334"/>
      <point x="256" y="313"/>
      <point x="294" y="313" type="curve" smooth="yes"/>
      <point x="364" y="313" type="line"/>
      <point x="342" y="192" type="line"/>
      <point x="328" y="192" type="line"/>
      <point x="174" y="0" type="line"/>
      <point x="16" y="0" type="line"/>
      <point x="192" y="203" type="line"/>
      <point x="129" y="236"/>
      <point x="101" y="283"/>
      <point x="101" y="340" type="curve" smooth="yes"/>
      <point x="101" y="352"/>
      <point x="103" y="365"/>
      <point x="105" y="378" type="curve" smooth="yes"/>
      <point x="121" y="462"/>
      <point x="208" y="554"/>
      <point x="337" y="554" type="curve" smooth="yes"/>
    </contour>
  </outline>
</glyph>
